{"title":"Pasanga 2 2015 Tamil Movies DVDScr XviD New Source +Sample ☻rDX☻","uid":13090615,"size":739854923,"categoryP":"video","categoryS":"movies","magnet":"?xt=urn:btih:75cfbbdbd6d93895902013c51c3a82de05dfb36d&amp;dn=Pasanga+2+2015+Tamil+Movies+DVDScr+XviD+New+Source+%2BSample+%E2%98%BBrDX%E2%98%BB&amp;tr=udp%3A%2F%2Ftracker.leechers-paradise.org%3A6969&amp;tr=udp%3A%2F%2Fzer0day.ch%3A1337&amp;tr=udp%3A%2F%2Fopen.demonii.com%3A1337&amp;tr=udp%3A%2F%2Ftracker.coppersurfer.tk%3A6969&amp;tr=udp%3A%2F%2Fexodus.desync.com%3A6969","seeders":6,"leechers":2,"uploader":"basicssom","files":2,"time":1451032051,"description":"----------------------------------------------------------------\r\nPasanga 2 2015 Tamil Movies DVDScr XviD AAC New Source with Sample ~ ☻rDX☻\r\n\r\nSCREEN SHOTS &amp; POSTER:\r\n  \nhttp://doctorhosts.com/2015/12/Pasanga2/11.html  \nhttp://doctorhosts.com/2015/12/Pasanga2/1.html  \nhttp://doctorhosts.com/2015/12/Pasanga2/2.html  \nhttp://doctorhosts.com/2015/12/Pasanga2/3.html  \nhttp://doctorhosts.com/2015/12/Pasanga2/4.html  \nhttp://doctorhosts.com/2015/12/Pasanga2/5.html  \nhttp://doctorhosts.com/2015/12/Pasanga2/6.html  \nhttp://doctorhosts.com/2015/12/Pasanga2/7.html  \nhttp://doctorhosts.com/2015/12/Pasanga2/8.html  \nhttp://doctorhosts.com/2015/12/Pasanga2/9.html  \nhttp://doctorhosts.com/2015/12/Pasanga2/10.html\r\n\r\nFormat                                   : Matroska\r\nFormat version                           : Version 4 / Version 2\r\nFile size                                : 698 MiB\r\nDuration                                 : 2h 5mn\r\nOverall bit rate                         : 777 Kbps\r\nMovie name                               : Pasanga 2 2015 Tamil Movies DVDScr XviD AAC New Source ~ rDX ~\r\n\r\nVideo\r\nID                                       : 1\r\nFormat                                   : AVC\r\nFormat/Info                              : Advanced Video Codec\r\nFormat profile                           :   \r\nFormat settings, CABAC                   : Yes\r\nFormat settings, ReFrames                : 4 frames\r\nCodec ID                                 : V_MPEG4/ISO/AVC\r\nDuration                                 : 2h 5mn\r\nBit rate                                 : 679 Kbps\r\nWidth                                    : 608 pixels\r\nHeight                                   : 256 pixels\r\nDisplay aspect ratio                     : 2.40:1\r\nFrame rate mode                          : Constant\r\nFrame rate                               : 29.970 fps\r\nColor space                              : YUV\r\nChroma subsampling                       : 4:2:0\r\nBit depth                                : 8 bits\r\nScan type                                : Progressive\r\nBits/(Pixel*Frame)                       : 0.146\r\nStream size                              : 598 MiB (86%)\r\nTitle                                    : ~ rDX ~\r\nWriting library                          : XviD\r\nLanguage                                 : Tamil\r\nDefault                                  : Yes\r\nForced                                   : Yes\r\n\r\nAudio\r\nID                                       : 2\r\nFormat                                   : MPEG Audio\r\nFormat version                           : Version 1\r\nFormat profile                           : Layer 3\r\nMode                                     : Joint stereo\r\nMode extension                           : MS Stereo\r\nCodec ID                                 : A_MPEG/L3\r\nCodec ID/Hint                            : MP3\r\nDuration                                 : 2h 5mn\r\nBit rate mode                            : Constant\r\nBit rate                                 : 96.0 Kbps\r\nChannel(s)                               : 2 channels\r\nSampling rate                            : 48.0 KHz\r\nCompression mode                         : Lossy\r\nStream size                              : 86.2 MiB (12%)\r\nTitle                                    : ~ rDX ~\r\nWriting library                          : LAME3.98r\r\nEncoding settings                        : -m j -V 4 -q 3 -lowpass 15.1 -b 96\r\nLanguage                                 : Tamil\r\nDefault                                  : Yes\r\nForced                                   : Yes\r\n\r\nIMDB                                      \nhttp://www.imdb.com/title/tt5285050/","torrent":{"xt":"urn:btih:75cfbbdbd6d93895902013c51c3a82de05dfb36d","amp;dn":"Pasanga+2+2015+Tamil+Movies+DVDScr+XviD+New+Source+%2BSample+%E2%98%BBrDX%E2%98%BB","amp;tr":["udp%3A%2F%2Ftracker.leechers-paradise.org%3A6969","udp%3A%2F%2Fzer0day.ch%3A1337","udp%3A%2F%2Fopen.demonii.com%3A1337","udp%3A%2F%2Ftracker.coppersurfer.tk%3A6969","udp%3A%2F%2Fexodus.desync.com%3A6969"],"infoHash":"75cfbbdbd6d93895902013c51c3a82de05dfb36d","infoHashBuffer":{"type":"Buffer","data":[117,207,187,219,214,217,56,149,144,32,19,197,28,58,130,222,5,223,179,109]},"announce":[],"urlList":[]}}